<?xml version="1.0" encoding="utf-8" standalone="no"?>
<!DOCTYPE svg PUBLIC "-//W3C//DTD SVG 1.1//EN"
  "http://www.w3.org/Graphics/SVG/1.1/DTD/svg11.dtd">
<!-- Created with matplotlib (http://matplotlib.org/) -->
<svg height="288pt" version="1.1" viewBox="0 0 432 288" width="432pt" xmlns="http://www.w3.org/2000/svg" xmlns:xlink="http://www.w3.org/1999/xlink">
 <defs>
  <style type="text/css">
*{stroke-linecap:butt;stroke-linejoin:round;}
  </style>
 </defs>
 <g id="figure_1">
  <g id="patch_1">
   <path d="M 0 288 
L 432 288 
L 432 0 
L 0 0 
z
" style="fill:#ffffff;"/>
  </g>
  <g id="axes_1">
   <g id="patch_2">
    <path d="M 54 252 
L 388.8 252 
L 388.8 34.56 
L 54 34.56 
z
" style="fill:#ffffff;"/>
   </g>
   <g id="matplotlib.axis_1">
    <g id="xtick_1">
     <g id="line2d_1">
      <defs>
       <path d="M 0 0 
L 0 3.5 
" id="m64a285b897" style="stroke:#000000;stroke-width:0.8;"/>
      </defs>
      <g>
       <use style="stroke:#000000;stroke-width:0.8;" x="69.218182" xlink:href="#m64a285b897" y="252"/>
      </g>
     </g>
     <g id="text_1">
      <!-- $-2\pi$ -->
      <defs>
       <path d="M 10.59375 35.5 
L 73.1875 35.5 
L 73.1875 27.203125 
L 10.59375 27.203125 
z
" id="DejaVuSans-2212"/>
       <path d="M 19.1875 8.296875 
L 53.609375 8.296875 
L 53.609375 0 
L 7.328125 0 
L 7.328125 8.296875 
Q 12.9375 14.109375 22.625 23.890625 
Q 32.328125 33.6875 34.8125 36.53125 
Q 39.546875 41.84375 41.421875 45.53125 
Q 43.3125 49.21875 43.3125 52.78125 
Q 43.3125 58.59375 39.234375 62.25 
Q 35.15625 65.921875 28.609375 65.921875 
Q 23.96875 65.921875 18.8125 64.3125 
Q 13.671875 62.703125 7.8125 59.421875 
L 7.8125 69.390625 
Q 13.765625 71.78125 18.9375 73 
Q 24.125 74.21875 28.421875 74.21875 
Q 39.75 74.21875 46.484375 68.546875 
Q 53.21875 62.890625 53.21875 53.421875 
Q 53.21875 48.921875 51.53125 44.890625 
Q 49.859375 40.875 45.40625 35.40625 
Q 44.1875 33.984375 37.640625 27.21875 
Q 31.109375 20.453125 19.1875 8.296875 
z
" id="DejaVuSans-32"/>
       <path d="M 9.125 54.6875 
L 61.53125 54.6875 
L 59.765625 45.703125 
L 52.875 45.703125 
L 46.34375 12.109375 
Q 45.65625 8.59375 46.578125 7.03125 
Q 47.46875 5.515625 50.140625 5.515625 
Q 50.875 5.515625 51.953125 5.671875 
Q 53.078125 5.765625 53.421875 5.8125 
L 52.15625 -0.6875 
Q 50.34375 -1.3125 48.484375 -1.609375 
Q 46.578125 -1.90625 44.78125 -1.90625 
Q 38.921875 -1.90625 37.3125 1.265625 
Q 35.6875 4.5 37.359375 13.09375 
L 43.703125 45.703125 
L 23.53125 45.703125 
L 14.65625 0 
L 5.46875 0 
L 14.359375 45.703125 
L 7.375 45.703125 
z
" id="DejaVuSans-Oblique-3c0"/>
      </defs>
      <g transform="translate(58.818182 266.598437)scale(0.1 -0.1)">
       <use transform="translate(0 0.78125)" xlink:href="#DejaVuSans-2212"/>
       <use transform="translate(83.789062 0.78125)" xlink:href="#DejaVuSans-32"/>
       <use transform="translate(147.412109 0.78125)" xlink:href="#DejaVuSans-Oblique-3c0"/>
      </g>
     </g>
    </g>
    <g id="xtick_2">
     <g id="line2d_2">
      <g>
       <use style="stroke:#000000;stroke-width:0.8;" x="107.263636" xlink:href="#m64a285b897" y="252"/>
      </g>
     </g>
     <g id="text_2">
      <!-- $-\frac{3\pi}{2}$ -->
      <defs>
       <path d="M 40.578125 39.3125 
Q 47.65625 37.796875 51.625 33 
Q 55.609375 28.21875 55.609375 21.1875 
Q 55.609375 10.40625 48.1875 4.484375 
Q 40.765625 -1.421875 27.09375 -1.421875 
Q 22.515625 -1.421875 17.65625 -0.515625 
Q 12.796875 0.390625 7.625 2.203125 
L 7.625 11.71875 
Q 11.71875 9.328125 16.59375 8.109375 
Q 21.484375 6.890625 26.8125 6.890625 
Q 36.078125 6.890625 40.9375 10.546875 
Q 45.796875 14.203125 45.796875 21.1875 
Q 45.796875 27.640625 41.28125 31.265625 
Q 36.765625 34.90625 28.71875 34.90625 
L 20.21875 34.90625 
L 20.21875 43.015625 
L 29.109375 43.015625 
Q 36.375 43.015625 40.234375 45.921875 
Q 44.09375 48.828125 44.09375 54.296875 
Q 44.09375 59.90625 40.109375 62.90625 
Q 36.140625 65.921875 28.71875 65.921875 
Q 24.65625 65.921875 20.015625 65.03125 
Q 15.375 64.15625 9.8125 62.3125 
L 9.8125 71.09375 
Q 15.4375 72.65625 20.34375 73.4375 
Q 25.25 74.21875 29.59375 74.21875 
Q 40.828125 74.21875 47.359375 69.109375 
Q 53.90625 64.015625 53.90625 55.328125 
Q 53.90625 49.265625 50.4375 45.09375 
Q 46.96875 40.921875 40.578125 39.3125 
z
" id="DejaVuSans-33"/>
      </defs>
      <g transform="translate(98.113636 268.8)scale(0.1 -0.1)">
       <use transform="translate(0 0.915625)" xlink:href="#DejaVuSans-2212"/>
       <use transform="translate(83.789062 46.046875)scale(0.7)" xlink:href="#DejaVuSans-33"/>
       <use transform="translate(128.325195 46.046875)scale(0.7)" xlink:href="#DejaVuSans-Oblique-3c0"/>
       <use transform="translate(104.789062 -38.490625)scale(0.7)" xlink:href="#DejaVuSans-32"/>
       <path d="M 83.789062 19.7125 
L 83.789062 25.9625 
L 170.46875 25.9625 
L 170.46875 19.7125 
L 83.789062 19.7125 
z
"/>
      </g>
     </g>
    </g>
    <g id="xtick_3">
     <g id="line2d_3">
      <g>
       <use style="stroke:#000000;stroke-width:0.8;" x="145.309091" xlink:href="#m64a285b897" y="252"/>
      </g>
     </g>
     <g id="text_3">
      <!-- $-\pi$ -->
      <g transform="translate(138.109091 266.598437)scale(0.1 -0.1)">
       <use transform="translate(0 0.3125)" xlink:href="#DejaVuSans-2212"/>
       <use transform="translate(83.789062 0.3125)" xlink:href="#DejaVuSans-Oblique-3c0"/>
      </g>
     </g>
    </g>
    <g id="xtick_4">
     <g id="line2d_4">
      <g>
       <use style="stroke:#000000;stroke-width:0.8;" x="183.354545" xlink:href="#m64a285b897" y="252"/>
      </g>
     </g>
     <g id="text_4">
      <!-- $-\frac{\pi}{2}$ -->
      <g transform="translate(176.304545 267.4)scale(0.1 -0.1)">
       <use transform="translate(0 0.5875)" xlink:href="#DejaVuSans-2212"/>
       <use transform="translate(84.789062 45.71875)scale(0.7)" xlink:href="#DejaVuSans-Oblique-3c0"/>
       <use transform="translate(83.789062 -38.81875)scale(0.7)" xlink:href="#DejaVuSans-32"/>
       <path d="M 83.789062 19.384375 
L 83.789062 25.634375 
L 128.325195 25.634375 
L 128.325195 19.384375 
L 83.789062 19.384375 
z
"/>
      </g>
     </g>
    </g>
    <g id="xtick_5">
     <g id="line2d_5">
      <g>
       <use style="stroke:#000000;stroke-width:0.8;" x="221.4" xlink:href="#m64a285b897" y="252"/>
      </g>
     </g>
     <g id="text_5">
      <!-- 0 -->
      <defs>
       <path d="M 31.78125 66.40625 
Q 24.171875 66.40625 20.328125 58.90625 
Q 16.5 51.421875 16.5 36.375 
Q 16.5 21.390625 20.328125 13.890625 
Q 24.171875 6.390625 31.78125 6.390625 
Q 39.453125 6.390625 43.28125 13.890625 
Q 47.125 21.390625 47.125 36.375 
Q 47.125 51.421875 43.28125 58.90625 
Q 39.453125 66.40625 31.78125 66.40625 
z
M 31.78125 74.21875 
Q 44.046875 74.21875 50.515625 64.515625 
Q 56.984375 54.828125 56.984375 36.375 
Q 56.984375 17.96875 50.515625 8.265625 
Q 44.046875 -1.421875 31.78125 -1.421875 
Q 19.53125 -1.421875 13.0625 8.265625 
Q 6.59375 17.96875 6.59375 36.375 
Q 6.59375 54.828125 13.0625 64.515625 
Q 19.53125 74.21875 31.78125 74.21875 
z
" id="DejaVuSans-30"/>
      </defs>
      <g transform="translate(218.21875 266.598437)scale(0.1 -0.1)">
       <use xlink:href="#DejaVuSans-30"/>
      </g>
     </g>
    </g>
    <g id="xtick_6">
     <g id="line2d_6">
      <g>
       <use style="stroke:#000000;stroke-width:0.8;" x="259.445455" xlink:href="#m64a285b897" y="252"/>
      </g>
     </g>
     <g id="text_6">
      <!-- $\frac{\pi}{2}$ -->
      <g transform="translate(256.545455 267.4)scale(0.1 -0.1)">
       <use transform="translate(1 45.71875)scale(0.7)" xlink:href="#DejaVuSans-Oblique-3c0"/>
       <use transform="translate(0 -38.81875)scale(0.7)" xlink:href="#DejaVuSans-32"/>
       <path d="M 0 19.384375 
L 0 25.634375 
L 44.536133 25.634375 
L 44.536133 19.384375 
L 0 19.384375 
z
"/>
      </g>
     </g>
    </g>
    <g id="xtick_7">
     <g id="line2d_7">
      <g>
       <use style="stroke:#000000;stroke-width:0.8;" x="297.490909" xlink:href="#m64a285b897" y="252"/>
      </g>
     </g>
     <g id="text_7">
      <!-- $\pi$ -->
      <g transform="translate(294.440909 266.598437)scale(0.1 -0.1)">
       <use transform="translate(0 0.3125)" xlink:href="#DejaVuSans-Oblique-3c0"/>
      </g>
     </g>
    </g>
    <g id="xtick_8">
     <g id="line2d_8">
      <g>
       <use style="stroke:#000000;stroke-width:0.8;" x="335.536364" xlink:href="#m64a285b897" y="252"/>
      </g>
     </g>
     <g id="text_8">
      <!-- $\frac{3\pi}{2}$ -->
      <g transform="translate(330.536364 268.8)scale(0.1 -0.1)">
       <use transform="translate(0 46.046875)scale(0.7)" xlink:href="#DejaVuSans-33"/>
       <use transform="translate(44.536133 46.046875)scale(0.7)" xlink:href="#DejaVuSans-Oblique-3c0"/>
       <use transform="translate(21 -38.490625)scale(0.7)" xlink:href="#DejaVuSans-32"/>
       <path d="M 0 19.7125 
L 0 25.9625 
L 86.679688 25.9625 
L 86.679688 19.7125 
L 0 19.7125 
z
"/>
      </g>
     </g>
    </g>
    <g id="xtick_9">
     <g id="line2d_9">
      <g>
       <use style="stroke:#000000;stroke-width:0.8;" x="373.581818" xlink:href="#m64a285b897" y="252"/>
      </g>
     </g>
     <g id="text_9">
      <!-- $2\pi$ -->
      <g transform="translate(367.381818 266.598437)scale(0.1 -0.1)">
       <use transform="translate(0 0.78125)" xlink:href="#DejaVuSans-32"/>
       <use transform="translate(63.623047 0.78125)" xlink:href="#DejaVuSans-Oblique-3c0"/>
      </g>
     </g>
    </g>
   </g>
   <g id="matplotlib.axis_2">
    <g id="ytick_1">
     <g id="line2d_10">
      <defs>
       <path d="M 0 0 
L -3.5 0 
" id="m51045f39b3" style="stroke:#000000;stroke-width:0.8;"/>
      </defs>
      <g>
       <use style="stroke:#000000;stroke-width:0.8;" x="54" xlink:href="#m51045f39b3" y="242.128805"/>
      </g>
     </g>
     <g id="text_10">
      <!-- −1.0 -->
      <defs>
       <path d="M 12.40625 8.296875 
L 28.515625 8.296875 
L 28.515625 63.921875 
L 10.984375 60.40625 
L 10.984375 69.390625 
L 28.421875 72.90625 
L 38.28125 72.90625 
L 38.28125 8.296875 
L 54.390625 8.296875 
L 54.390625 0 
L 12.40625 0 
z
" id="DejaVuSans-31"/>
       <path d="M 10.6875 12.40625 
L 21 12.40625 
L 21 0 
L 10.6875 0 
z
" id="DejaVuSans-2e"/>
      </defs>
      <g transform="translate(22.717187 245.928024)scale(0.1 -0.1)">
       <use xlink:href="#DejaVuSans-2212"/>
       <use x="83.789062" xlink:href="#DejaVuSans-31"/>
       <use x="147.412109" xlink:href="#DejaVuSans-2e"/>
       <use x="179.199219" xlink:href="#DejaVuSans-30"/>
      </g>
     </g>
    </g>
    <g id="ytick_2">
     <g id="line2d_11">
      <g>
       <use style="stroke:#000000;stroke-width:0.8;" x="54" xlink:href="#m51045f39b3" y="192.707513"/>
      </g>
     </g>
     <g id="text_11">
      <!-- −0.5 -->
      <defs>
       <path d="M 10.796875 72.90625 
L 49.515625 72.90625 
L 49.515625 64.59375 
L 19.828125 64.59375 
L 19.828125 46.734375 
Q 21.96875 47.46875 24.109375 47.828125 
Q 26.265625 48.1875 28.421875 48.1875 
Q 40.625 48.1875 47.75 41.5 
Q 54.890625 34.8125 54.890625 23.390625 
Q 54.890625 11.625 47.5625 5.09375 
Q 40.234375 -1.421875 26.90625 -1.421875 
Q 22.3125 -1.421875 17.546875 -0.640625 
Q 12.796875 0.140625 7.71875 1.703125 
L 7.71875 11.625 
Q 12.109375 9.234375 16.796875 8.0625 
Q 21.484375 6.890625 26.703125 6.890625 
Q 35.15625 6.890625 40.078125 11.328125 
Q 45.015625 15.765625 45.015625 23.390625 
Q 45.015625 31 40.078125 35.4375 
Q 35.15625 39.890625 26.703125 39.890625 
Q 22.75 39.890625 18.8125 39.015625 
Q 14.890625 38.140625 10.796875 36.28125 
z
" id="DejaVuSans-35"/>
      </defs>
      <g transform="translate(22.717187 196.506732)scale(0.1 -0.1)">
       <use xlink:href="#DejaVuSans-2212"/>
       <use x="83.789062" xlink:href="#DejaVuSans-30"/>
       <use x="147.412109" xlink:href="#DejaVuSans-2e"/>
       <use x="179.199219" xlink:href="#DejaVuSans-35"/>
      </g>
     </g>
    </g>
    <g id="ytick_3">
     <g id="line2d_12">
      <g>
       <use style="stroke:#000000;stroke-width:0.8;" x="54" xlink:href="#m51045f39b3" y="143.286221"/>
      </g>
     </g>
     <g id="text_12">
      <!-- 0.0 -->
      <g transform="translate(31.096875 147.08544)scale(0.1 -0.1)">
       <use xlink:href="#DejaVuSans-30"/>
       <use x="63.623047" xlink:href="#DejaVuSans-2e"/>
       <use x="95.410156" xlink:href="#DejaVuSans-30"/>
      </g>
     </g>
    </g>
    <g id="ytick_4">
     <g id="line2d_13">
      <g>
       <use style="stroke:#000000;stroke-width:0.8;" x="54" xlink:href="#m51045f39b3" y="93.864929"/>
      </g>
     </g>
     <g id="text_13">
      <!-- 0.5 -->
      <g transform="translate(31.096875 97.664147)scale(0.1 -0.1)">
       <use xlink:href="#DejaVuSans-30"/>
       <use x="63.623047" xlink:href="#DejaVuSans-2e"/>
       <use x="95.410156" xlink:href="#DejaVuSans-35"/>
      </g>
     </g>
    </g>
    <g id="ytick_5">
     <g id="line2d_14">
      <g>
       <use style="stroke:#000000;stroke-width:0.8;" x="54" xlink:href="#m51045f39b3" y="44.443636"/>
      </g>
     </g>
     <g id="text_14">
      <!-- 1.0 -->
      <g transform="translate(31.096875 48.242855)scale(0.1 -0.1)">
       <use xlink:href="#DejaVuSans-31"/>
       <use x="63.623047" xlink:href="#DejaVuSans-2e"/>
       <use x="95.410156" xlink:href="#DejaVuSans-30"/>
      </g>
     </g>
    </g>
   </g>
   <g id="line2d_15">
    <path clip-path="url(#p31f75845f9)" d="M 69.218182 143.286221 
L 72.292562 130.773495 
L 75.366942 118.462105 
L 78.441322 106.550143 
L 81.515702 95.229279 
L 84.590083 84.681669 
L 87.664463 75.077028 
L 90.738843 66.569898 
L 93.813223 59.297163 
L 96.887603 53.375843 
L 99.961983 48.901215 
L 103.036364 45.945277 
L 106.110744 44.555591 
L 109.185124 44.754518 
L 112.259504 46.538857 
L 115.333884 49.879898 
L 118.408264 54.723881 
L 121.482645 60.992865 
L 124.557025 68.58598 
L 127.631405 77.38105 
L 130.705785 87.236558 
L 133.780165 97.993927 
L 136.854545 109.480066 
L 139.928926 121.510158 
L 143.003306 133.890636 
L 146.077686 146.422292 
L 149.152066 158.903487 
L 152.226446 171.133395 
L 155.300826 182.915231 
L 158.375207 194.059422 
L 161.449587 204.386653 
L 164.523967 213.730755 
L 167.598347 221.941378 
L 170.672727 228.88641 
L 173.747107 234.454103 
L 176.821488 238.554871 
L 179.895868 241.12273 
L 182.970248 242.116364 
L 186.044628 241.519783 
L 189.119008 239.342588 
L 192.193388 235.61981 
L 195.267769 230.411349 
L 198.342149 223.801013 
L 201.416529 215.895164 
L 204.490909 206.821009 
L 207.565289 196.724556 
L 210.639669 185.768261 
L 213.71405 174.128413 
L 216.78843 161.992303 
L 219.86281 149.555205 
L 222.93719 137.017237 
L 226.01157 124.580139 
L 229.08595 112.444029 
L 232.160331 100.804181 
L 235.234711 89.847885 
L 238.309091 79.751432 
L 241.383471 70.677278 
L 244.457851 62.771428 
L 247.532231 56.161092 
L 250.606612 50.952632 
L 253.680992 47.229854 
L 256.755372 45.052658 
L 259.829752 44.456078 
L 262.904132 45.449711 
L 265.978512 48.017571 
L 269.052893 52.118339 
L 272.127273 57.686032 
L 275.201653 64.631064 
L 278.276033 72.841687 
L 281.350413 82.185789 
L 284.424793 92.51302 
L 287.499174 103.65721 
L 290.573554 115.439047 
L 293.647934 127.668954 
L 296.722314 140.15015 
L 299.796694 152.681806 
L 302.871074 165.062283 
L 305.945455 177.092376 
L 309.019835 188.578514 
L 312.094215 199.335883 
L 315.168595 209.191392 
L 318.242975 217.986462 
L 321.317355 225.579577 
L 324.391736 231.848561 
L 327.466116 236.692544 
L 330.540496 240.033584 
L 333.614876 241.817923 
L 336.689256 242.01685 
L 339.763636 240.627164 
L 342.838017 237.671226 
L 345.912397 233.196598 
L 348.986777 227.275278 
L 352.061157 220.002543 
L 355.135537 211.495414 
L 358.209917 201.890773 
L 361.284298 191.343163 
L 364.358678 180.022298 
L 367.433058 168.110337 
L 370.507438 155.798946 
L 373.581818 143.286221 
" style="fill:none;stroke:#1f77b4;stroke-linecap:square;stroke-width:1.5;"/>
   </g>
   <g id="line2d_16">
    <path clip-path="url(#p31f75845f9)" d="M 69.218182 44.443636 
L 72.292562 45.238843 
L 75.366942 47.61167 
L 78.441322 51.523935 
L 81.515702 56.91269 
L 84.590083 63.691227 
L 87.664463 71.750478 
L 90.738843 80.960766 
L 93.813223 91.173893 
L 96.887603 102.225527 
L 99.961983 113.937844 
L 103.036364 126.122386 
L 106.110744 138.583101 
L 109.185124 151.119491 
L 112.259504 163.529841 
L 115.333884 175.614464 
L 118.408264 187.178912 
L 121.482645 198.037111 
L 124.557025 208.014348 
L 127.631405 216.950085 
L 130.705785 224.700543 
L 133.780165 231.141014 
L 136.854545 236.167868 
L 139.928926 239.700222 
L 143.003306 241.681238 
L 146.077686 242.079042 
L 149.152066 240.887232 
L 152.226446 238.124986 
L 155.300826 233.836748 
L 158.375207 228.091519 
L 161.449587 220.98174 
L 164.523967 212.621812 
L 167.598347 203.146247 
L 170.672727 192.707513 
L 173.747107 181.473571 
L 176.821488 169.625181 
L 179.895868 157.352987 
L 182.970248 144.854454 
L 186.044628 132.330687 
L 189.119008 119.983198 
L 192.193388 108.010664 
L 195.267769 96.605727 
L 198.342149 85.951897 
L 201.416529 76.220597 
L 204.490909 67.568408 
L 207.565289 60.134547 
L 210.639669 54.038628 
L 213.71405 49.378736 
L 216.78843 46.229851 
L 219.86281 44.642638 
L 222.93719 44.642638 
L 226.01157 46.229851 
L 229.08595 49.378736 
L 232.160331 54.038628 
L 235.234711 60.134547 
L 238.309091 67.568408 
L 241.383471 76.220597 
L 244.457851 85.951897 
L 247.532231 96.605727 
L 250.606612 108.010664 
L 253.680992 119.983198 
L 256.755372 132.330687 
L 259.829752 144.854454 
L 262.904132 157.352987 
L 265.978512 169.625181 
L 269.052893 181.473571 
L 272.127273 192.707513 
L 275.201653 203.146247 
L 278.276033 212.621812 
L 281.350413 220.98174 
L 284.424793 228.091519 
L 287.499174 233.836748 
L 290.573554 238.124986 
L 293.647934 240.887232 
L 296.722314 242.079042 
L 299.796694 241.681238 
L 302.871074 239.700222 
L 305.945455 236.167868 
L 309.019835 231.141014 
L 312.094215 224.700543 
L 315.168595 216.950085 
L 318.242975 208.014348 
L 321.317355 198.037111 
L 324.391736 187.178912 
L 327.466116 175.614464 
L 330.540496 163.529841 
L 333.614876 151.119491 
L 336.689256 138.583101 
L 339.763636 126.122386 
L 342.838017 113.937844 
L 345.912397 102.225527 
L 348.986777 91.173893 
L 352.061157 80.960766 
L 355.135537 71.750478 
L 358.209917 63.691227 
L 361.284298 56.91269 
L 364.358678 51.523935 
L 367.433058 47.61167 
L 370.507438 45.238843 
L 373.581818 44.443636 
" style="fill:none;stroke:#ff7f0e;stroke-linecap:square;stroke-width:1.5;"/>
   </g>
   <g id="patch_3">
    <path d="M 54 252 
L 54 34.56 
" style="fill:none;stroke:#000000;stroke-linecap:square;stroke-linejoin:miter;stroke-width:0.8;"/>
   </g>
   <g id="patch_4">
    <path d="M 54 252 
L 388.8 252 
" style="fill:none;stroke:#000000;stroke-linecap:square;stroke-linejoin:miter;stroke-width:0.8;"/>
   </g>
   <g id="legend_1">
    <g id="patch_5">
     <path d="M 309.154688 71.91625 
L 381.8 71.91625 
Q 383.8 71.91625 383.8 69.91625 
L 383.8 41.56 
Q 383.8 39.56 381.8 39.56 
L 309.154688 39.56 
Q 307.154688 39.56 307.154688 41.56 
L 307.154688 69.91625 
Q 307.154688 71.91625 309.154688 71.91625 
z
" style="fill:#ffffff;opacity:0.8;stroke:#cccccc;stroke-linejoin:miter;"/>
    </g>
    <g id="line2d_17">
     <path d="M 311.154688 47.658437 
L 331.154688 47.658437 
" style="fill:none;stroke:#1f77b4;stroke-linecap:square;stroke-width:1.5;"/>
    </g>
    <g id="line2d_18"/>
    <g id="text_15">
     <!-- seno -->
     <defs>
      <path d="M 44.28125 53.078125 
L 44.28125 44.578125 
Q 40.484375 46.53125 36.375 47.5 
Q 32.28125 48.484375 27.875 48.484375 
Q 21.1875 48.484375 17.84375 46.4375 
Q 14.5 44.390625 14.5 40.28125 
Q 14.5 37.15625 16.890625 35.375 
Q 19.28125 33.59375 26.515625 31.984375 
L 29.59375 31.296875 
Q 39.15625 29.25 43.1875 25.515625 
Q 47.21875 21.78125 47.21875 15.09375 
Q 47.21875 7.46875 41.1875 3.015625 
Q 35.15625 -1.421875 24.609375 -1.421875 
Q 20.21875 -1.421875 15.453125 -0.5625 
Q 10.6875 0.296875 5.421875 2 
L 5.421875 11.28125 
Q 10.40625 8.6875 15.234375 7.390625 
Q 20.0625 6.109375 24.8125 6.109375 
Q 31.15625 6.109375 34.5625 8.28125 
Q 37.984375 10.453125 37.984375 14.40625 
Q 37.984375 18.0625 35.515625 20.015625 
Q 33.0625 21.96875 24.703125 23.78125 
L 21.578125 24.515625 
Q 13.234375 26.265625 9.515625 29.90625 
Q 5.8125 33.546875 5.8125 39.890625 
Q 5.8125 47.609375 11.28125 51.796875 
Q 16.75 56 26.8125 56 
Q 31.78125 56 36.171875 55.265625 
Q 40.578125 54.546875 44.28125 53.078125 
z
" id="DejaVuSans-73"/>
      <path d="M 56.203125 29.59375 
L 56.203125 25.203125 
L 14.890625 25.203125 
Q 15.484375 15.921875 20.484375 11.0625 
Q 25.484375 6.203125 34.421875 6.203125 
Q 39.59375 6.203125 44.453125 7.46875 
Q 49.3125 8.734375 54.109375 11.28125 
L 54.109375 2.78125 
Q 49.265625 0.734375 44.1875 -0.34375 
Q 39.109375 -1.421875 33.890625 -1.421875 
Q 20.796875 -1.421875 13.15625 6.1875 
Q 5.515625 13.8125 5.515625 26.8125 
Q 5.515625 40.234375 12.765625 48.109375 
Q 20.015625 56 32.328125 56 
Q 43.359375 56 49.78125 48.890625 
Q 56.203125 41.796875 56.203125 29.59375 
z
M 47.21875 32.234375 
Q 47.125 39.59375 43.09375 43.984375 
Q 39.0625 48.390625 32.421875 48.390625 
Q 24.90625 48.390625 20.390625 44.140625 
Q 15.875 39.890625 15.1875 32.171875 
z
" id="DejaVuSans-65"/>
      <path d="M 54.890625 33.015625 
L 54.890625 0 
L 45.90625 0 
L 45.90625 32.71875 
Q 45.90625 40.484375 42.875 44.328125 
Q 39.84375 48.1875 33.796875 48.1875 
Q 26.515625 48.1875 22.3125 43.546875 
Q 18.109375 38.921875 18.109375 30.90625 
L 18.109375 0 
L 9.078125 0 
L 9.078125 54.6875 
L 18.109375 54.6875 
L 18.109375 46.1875 
Q 21.34375 51.125 25.703125 53.5625 
Q 30.078125 56 35.796875 56 
Q 45.21875 56 50.046875 50.171875 
Q 54.890625 44.34375 54.890625 33.015625 
z
" id="DejaVuSans-6e"/>
      <path d="M 30.609375 48.390625 
Q 23.390625 48.390625 19.1875 42.75 
Q 14.984375 37.109375 14.984375 27.296875 
Q 14.984375 17.484375 19.15625 11.84375 
Q 23.34375 6.203125 30.609375 6.203125 
Q 37.796875 6.203125 41.984375 11.859375 
Q 46.1875 17.53125 46.1875 27.296875 
Q 46.1875 37.015625 41.984375 42.703125 
Q 37.796875 48.390625 30.609375 48.390625 
z
M 30.609375 56 
Q 42.328125 56 49.015625 48.375 
Q 55.71875 40.765625 55.71875 27.296875 
Q 55.71875 13.875 49.015625 6.21875 
Q 42.328125 -1.421875 30.609375 -1.421875 
Q 18.84375 -1.421875 12.171875 6.21875 
Q 5.515625 13.875 5.515625 27.296875 
Q 5.515625 40.765625 12.171875 48.375 
Q 18.84375 56 30.609375 56 
z
" id="DejaVuSans-6f"/>
     </defs>
     <g transform="translate(339.154688 51.158437)scale(0.1 -0.1)">
      <use xlink:href="#DejaVuSans-73"/>
      <use x="52.099609" xlink:href="#DejaVuSans-65"/>
      <use x="113.623047" xlink:href="#DejaVuSans-6e"/>
      <use x="177.001953" xlink:href="#DejaVuSans-6f"/>
     </g>
    </g>
    <g id="line2d_19">
     <path d="M 311.154688 62.336562 
L 331.154688 62.336562 
" style="fill:none;stroke:#ff7f0e;stroke-linecap:square;stroke-width:1.5;"/>
    </g>
    <g id="line2d_20"/>
    <g id="text_16">
     <!-- cosseno -->
     <defs>
      <path d="M 48.78125 52.59375 
L 48.78125 44.1875 
Q 44.96875 46.296875 41.140625 47.34375 
Q 37.3125 48.390625 33.40625 48.390625 
Q 24.65625 48.390625 19.8125 42.84375 
Q 14.984375 37.3125 14.984375 27.296875 
Q 14.984375 17.28125 19.8125 11.734375 
Q 24.65625 6.203125 33.40625 6.203125 
Q 37.3125 6.203125 41.140625 7.25 
Q 44.96875 8.296875 48.78125 10.40625 
L 48.78125 2.09375 
Q 45.015625 0.34375 40.984375 -0.53125 
Q 36.96875 -1.421875 32.421875 -1.421875 
Q 20.0625 -1.421875 12.78125 6.34375 
Q 5.515625 14.109375 5.515625 27.296875 
Q 5.515625 40.671875 12.859375 48.328125 
Q 20.21875 56 33.015625 56 
Q 37.15625 56 41.109375 55.140625 
Q 45.0625 54.296875 48.78125 52.59375 
z
" id="DejaVuSans-63"/>
     </defs>
     <g transform="translate(339.154688 65.836562)scale(0.1 -0.1)">
      <use xlink:href="#DejaVuSans-63"/>
      <use x="54.980469" xlink:href="#DejaVuSans-6f"/>
      <use x="116.162109" xlink:href="#DejaVuSans-73"/>
      <use x="168.261719" xlink:href="#DejaVuSans-73"/>
      <use x="220.361328" xlink:href="#DejaVuSans-65"/>
      <use x="281.884766" xlink:href="#DejaVuSans-6e"/>
      <use x="345.263672" xlink:href="#DejaVuSans-6f"/>
     </g>
    </g>
   </g>
  </g>
 </g>
 <defs>
  <clipPath id="p31f75845f9">
   <rect height="217.44" width="334.8" x="54" y="34.56"/>
  </clipPath>
 </defs>
</svg>
